<svg width="121" height="48" viewBox="0 0 121 48" fill="none" xmlns="http://www.w3.org/2000/svg">
<path fill-rule="evenodd" clip-rule="evenodd" d="M72.6079 10.6097C70.3273 10.8288 68.2771 12.0248 67.0754 13.8372C66.2657 15.0584 65.849 16.4073 65.7897 17.9996C65.6585 21.5186 67.5273 24.443 70.6508 25.6065C71.5754 25.9509 72.393 26.0845 73.5486 26.0798C74.4301 26.0763 74.7966 26.033 75.5658 25.8413C78.2022 25.1846 80.2572 23.1381 80.921 20.5083C81.1253 19.6988 81.1797 19.2355 81.1785 18.3151C81.1766 16.8667 80.9384 15.7964 80.3629 14.6506C79.5995 13.1309 78.5728 12.1087 77.0688 11.3711C75.7514 10.725 74.187 10.458 72.6079 10.6097ZM113.627 10.6095C110.692 10.8918 108.803 12.7675 108.812 15.3897C108.815 16.3833 109.126 17.1667 109.797 17.8713C110.553 18.6667 111.412 19.1414 113.102 19.6978C114.739 20.2369 115.51 20.6528 115.728 21.1143C115.836 21.3442 115.841 21.7569 115.738 21.9828C115.653 22.1686 115.387 22.419 115.184 22.5047C114.357 22.854 113.052 22.7382 111.995 22.2218C111.494 21.9775 110.828 21.5464 110.51 21.2614L110.291 21.0652L109.116 22.4778C108.469 23.2548 107.94 23.9066 107.94 23.9262C107.94 23.9458 108.072 24.0737 108.233 24.2104C109.035 24.8909 110.193 25.488 111.243 25.7621C112.619 26.1211 114.53 26.1987 115.772 25.9459C116.266 25.8454 116.996 25.6102 117.42 25.4148C118.417 24.9551 119.343 24.0786 119.807 23.1544C120.223 22.3259 120.314 21.1558 120.045 20.089C119.947 19.7015 119.638 19.0723 119.375 18.7264C118.983 18.2113 118.336 17.6818 117.723 17.3745C117.34 17.1823 116.703 16.9464 115.405 16.5165C114.692 16.2803 113.979 16.0257 113.821 15.9507C113.239 15.6756 112.964 15.3135 112.965 14.8249C112.966 14.5133 113.053 14.3016 113.255 14.1248C113.581 13.8393 113.981 13.7207 114.617 13.7207C115.561 13.7207 116.4 14.0107 117.471 14.7072L117.919 14.9982L118.013 14.882C118.065 14.818 118.417 14.3753 118.794 13.8981C119.172 13.4209 119.581 12.9063 119.704 12.7544L119.928 12.4784L119.712 12.2759C119.193 11.7887 118.361 11.3283 117.473 11.0369C116.236 10.631 114.922 10.485 113.627 10.6095ZM55.2155 18.3545V25.7491H60.6145H66.0136V24.0138V22.2786H62.5922H59.1708V16.6193V10.96H57.1931H55.2155V18.3545ZM80.8462 12.6756V14.3911H83.1205H85.3949V20.0704V25.7498L87.3824 25.7396L89.37 25.7293L89.38 20.0599L89.3901 14.3905L92.0301 14.4007L94.6702 14.4108L94.6924 17.7433C94.714 20.98 94.7171 21.0866 94.8006 21.4534C94.924 21.9953 95.0622 22.3977 95.2863 22.8667C95.5712 23.4633 95.8799 23.9018 96.33 24.3494C97.161 25.1755 98.165 25.6888 99.5096 25.975C99.9793 26.0749 100.073 26.0815 101.038 26.0824C102.144 26.0835 102.481 26.0458 103.194 25.841C105.385 25.2114 106.851 23.6601 107.306 21.4898C107.454 20.7829 107.47 20.159 107.458 15.4756L107.446 10.9798L105.458 10.9695L103.471 10.9593L103.471 15.4654C103.471 20.4035 103.471 20.4009 103.237 21.0005C103.017 21.5668 102.682 21.9526 102.229 22.164C101.47 22.5182 100.242 22.4519 99.6047 22.0223C99.217 21.7608 98.8997 21.254 98.7158 20.6025L98.6267 20.287L98.615 15.6235L98.6033 10.96H89.7248H80.8462V12.6756ZM74.4781 14.3507C75.7924 14.7262 76.7109 15.7697 77.0084 17.225C77.3588 18.9394 76.8619 20.6971 75.7673 21.6157C75.4617 21.8722 74.9391 22.1536 74.5446 22.2741C73.6399 22.5506 72.4684 22.4121 71.65 21.9318C71.2344 21.688 70.7245 21.1776 70.4681 20.7488C69.8626 19.7359 69.6937 18.2872 70.0279 16.9711C70.3842 15.568 71.4262 14.5439 72.7575 14.2885C73.1739 14.2086 74.0977 14.242 74.4781 14.3507ZM55.255 33.521V36.7182L56.847 36.702C58.1443 36.6889 58.4897 36.6739 58.7125 36.6211C59.5634 36.4195 60.0521 35.9289 60.1642 35.1638C60.2749 34.4082 59.9039 33.7379 59.2171 33.4526L58.9272 33.3321L59.1424 33.2111C59.3804 33.0771 59.5473 32.8891 59.7133 32.5677C59.8122 32.3762 59.8231 32.3152 59.8224 31.9605C59.8217 31.6009 59.8106 31.5427 59.6965 31.3009C59.5415 30.9722 59.2872 30.7193 58.9506 30.5592C58.512 30.3505 58.2545 30.3238 56.6755 30.3238H55.255V33.521ZM62.7125 31.0435C61.4581 34.4029 60.7349 36.3322 60.6133 36.6436C60.5881 36.7079 60.6389 36.7127 61.3527 36.7127H62.1192L62.3586 35.9929L62.598 35.2732H63.7406H64.8833L65.1177 35.9929L65.3522 36.7127H66.1599C66.6673 36.7127 66.9588 36.6985 66.944 36.6747C66.9225 36.64 66.0586 34.2938 65.3026 32.2168C65.1329 31.7504 64.9074 31.1338 64.8017 30.8464L64.6094 30.3239L63.7954 30.3238L62.9813 30.3238L62.7125 31.0435ZM67.8331 33.5182V36.7127H68.5645H69.2958L69.3061 34.6263L69.3163 32.5399L70.7182 34.6263L72.1201 36.7127H72.7849H73.4497V33.5182V30.3238H72.7381H72.0265L72.0162 32.3844L72.006 34.445L70.625 32.3844L69.244 30.3238H68.5385H67.8331V33.5182ZM74.8736 33.5182V36.7127H75.6054H76.3371L76.3382 35.6774L76.3392 34.6422L76.6447 34.3002C76.8127 34.1121 76.9609 33.9568 76.974 33.9551C76.987 33.9534 77.2607 34.3824 77.5821 34.9084C77.9035 35.4344 78.2844 36.0553 78.4285 36.2882L78.6905 36.7116L79.5729 36.7121C80.2684 36.7125 80.4491 36.7022 80.4258 36.6634C80.3667 36.5649 79.2164 34.7651 78.458 33.5845L77.9559 32.8028L78.4039 32.3028C78.8028 31.8574 79.9357 30.5727 80.0881 30.3928C80.1434 30.3274 80.1021 30.3238 79.299 30.3238H78.4515L78.0159 30.8463C77.7763 31.1337 77.305 31.6961 76.9686 32.096L76.3569 32.823L76.3464 31.5734L76.336 30.3238H75.6048H74.8736V33.5182ZM57.9774 31.5285C58.4167 31.7038 58.5478 32.2677 58.2308 32.6176C58.0384 32.8298 57.8161 32.8872 57.1859 32.8872H56.6789V32.1839C56.6789 31.7971 56.6923 31.4666 56.7086 31.4495C56.7628 31.3926 57.7982 31.457 57.9774 31.5285ZM64.1362 32.9267C64.3268 33.5232 64.4909 34.0334 64.5009 34.0605C64.515 34.0989 64.3472 34.1098 63.7435 34.1098C63.3169 34.1098 62.968 34.0991 62.968 34.0861C62.968 34.0731 63.1391 33.5376 63.3482 32.8962C63.5879 32.1613 63.7398 31.7507 63.7591 31.7861C63.7759 31.8169 63.9456 32.3302 64.1362 32.9267ZM58.0436 34.0129C58.497 34.1306 58.7201 34.4241 58.6884 34.8612C58.6666 35.1608 58.5298 35.3697 58.2736 35.4943C58.1002 35.5786 58.02 35.5883 57.381 35.6021L56.6789 35.6172V34.7846V33.952H57.2442C57.6259 33.952 57.8854 33.9718 58.0436 34.0129Z" fill="#1E0089"/>
<path fill-rule="evenodd" clip-rule="evenodd" d="M48 0H0V48H48V0ZM44.8369 3.12356H3.1631V44.8764H44.8369V3.12356Z" fill="#20D5D5"/>
<path d="M21.3036 10.4702C21.1111 10.1644 21.2892 9.5933 21.7403 9.06918C21.8757 8.91194 22.0007 8.78326 22.0181 8.78326C22.0356 8.78326 22.1033 8.91194 22.1687 9.06918C22.5815 10.0622 22.5072 10.7157 21.9817 10.7157H21.8627L21.8511 10.3903L21.8397 10.065L21.7632 10.3706C21.7187 10.5485 21.6661 10.6763 21.6372 10.6763C21.5188 10.6763 21.3789 10.5898 21.3036 10.4702Z" fill="#1E0089"/>
<path d="M26.0836 10.4238C25.9233 10.1106 25.9857 9.58021 26.2575 8.944L26.3321 8.76953L26.5324 8.96372C26.9628 9.38109 27.2407 9.88392 27.2375 10.2398C27.2361 10.3928 27.1927 10.4661 27.042 10.5696C26.8683 10.689 26.8174 10.6587 26.7246 10.3805C26.6775 10.2395 26.63 10.1241 26.6191 10.1241C26.6081 10.1241 26.6119 10.2598 26.6275 10.4256L26.6558 10.7271L26.4727 10.7065C26.2556 10.6821 26.1922 10.6361 26.0836 10.4238Z" fill="#1E0089"/>
<path d="M18.1164 11.5636C18.1567 10.943 18.3296 10.4705 18.8762 9.48765C19.0193 9.23036 19.1518 9.01988 19.1707 9.01988C19.2023 9.01988 19.6308 9.50346 20.0314 9.99119C20.464 10.5178 20.8269 11.2278 20.9117 11.7135C20.997 12.2017 20.9042 12.5283 20.6187 12.7455C20.4996 12.836 19.9281 13.065 19.9002 13.0333C19.8951 13.0275 19.8012 12.7122 19.6915 12.3326L19.492 11.6425L19.4891 12.3591L19.4862 13.0757L19.3775 13.0988C19.2387 13.1282 18.854 13.0653 18.7056 12.9887C18.5643 12.9159 18.351 12.7034 18.2762 12.561C18.157 12.3338 18.0925 11.9316 18.1164 11.5636Z" fill="#1E0089"/>
<path d="M27.5367 11.8988C27.5396 11.1054 27.7887 10.6115 28.7576 9.47803C28.973 9.22602 29.164 9.01988 29.1821 9.01988C29.228 9.01988 29.4097 9.33873 29.7452 10.0082C30.1802 10.8761 30.3563 11.5174 30.3122 12.073C30.258 12.7565 30.0037 13.022 29.357 13.0708L29.069 13.0925L29.046 12.959C29.0334 12.8857 29.0108 12.5543 28.9959 12.2227C28.981 11.8911 28.96 11.6286 28.9492 11.6394C28.9384 11.6502 28.8651 11.9747 28.7862 12.3606L28.6429 13.0622L28.5053 13.0485C28.117 13.0096 27.8099 12.8005 27.6278 12.4509C27.5495 12.3006 27.5356 12.2162 27.5367 11.8988Z" fill="#1E0089"/>
<path d="M21.5554 14.6811C21.6158 13.2066 22.0793 12.1946 23.7915 9.79877C24.0357 9.45712 24.2482 9.17767 24.2637 9.17767C24.3054 9.17775 24.8923 10.1083 25.3223 10.856C26.3214 12.5933 26.7355 13.7388 26.7899 14.9158C26.847 16.1533 26.4994 16.8115 25.6368 17.0985C25.4183 17.1712 24.7706 17.3013 24.6256 17.3016C24.5738 17.3017 24.5361 17.075 24.3943 15.9116C24.3011 15.147 24.2112 14.477 24.1944 14.4228C24.1565 14.2999 24.1593 14.2809 23.9742 15.882C23.8977 16.5436 23.8248 17.136 23.8121 17.1985L23.789 17.3123L23.5211 17.2875C22.9355 17.2332 22.4335 17.0111 22.1292 16.6718C21.6893 16.181 21.5182 15.5877 21.5554 14.6811Z" fill="#1E0089"/>
<path d="M15.6851 9.86778C15.7309 9.67257 15.7776 9.47266 15.789 9.42356C15.8085 9.33877 15.8152 9.33719 15.9225 9.39252C16.1229 9.49589 16.8478 10.0519 17.0443 10.2531C17.4228 10.6406 17.6119 11.1181 17.4962 11.3942C17.446 11.514 17.1175 11.815 17.0327 11.8189C17.0211 11.8195 16.9167 11.66 16.8006 11.4645C16.6104 11.1442 16.4716 10.9659 16.5273 11.1135C16.638 11.4066 16.7589 11.9127 16.7261 11.9454C16.7046 11.9668 16.5827 11.9926 16.4551 12.0027C16.1502 12.0268 15.9562 11.9199 15.7838 11.6329C15.5443 11.2341 15.5097 10.6158 15.6851 9.86778Z" fill="#1E0089"/>
<path d="M31.3747 10.2874C31.5707 10.07 31.8044 9.89839 32.3494 9.57177C32.5285 9.46438 32.6873 9.38945 32.7021 9.40526C32.7428 9.44852 32.8159 10.2016 32.8151 10.5693C32.8138 11.1944 32.624 11.7398 32.3412 11.931C32.2257 12.0092 32.1689 12.0213 31.9985 12.0044C31.8861 11.9932 31.7583 11.9649 31.7143 11.9414C31.6356 11.8994 31.6364 11.8929 31.77 11.4976C31.8445 11.2769 31.898 11.0889 31.8889 11.0797C31.8723 11.0632 31.8024 11.168 31.5474 11.5921C31.4727 11.7162 31.4015 11.8182 31.3891 11.8188C31.3182 11.8223 31.0345 11.5212 30.9943 11.3998C30.8904 11.0857 31.0343 10.6649 31.3747 10.2874Z" fill="#1E0089"/>
<path d="M14.1266 12.5692C14.1141 12.3415 14.0955 12.0886 14.0852 12.0073C14.0697 11.8849 14.0786 11.8594 14.1366 11.8594C14.2462 11.8594 15.5699 12.226 16.1835 12.4263C16.8376 12.6398 17.2155 12.8142 17.647 13.1017C18.2563 13.5076 18.6829 13.9675 18.9445 14.5005C19.0634 14.7426 19.0709 14.7839 19.0709 15.1918C19.0709 15.584 19.0606 15.6466 18.9634 15.8439C18.9043 15.964 18.7321 16.1947 18.5807 16.3566L18.3055 16.651L17.4467 15.8031C16.7655 15.1307 16.608 14.9919 16.6852 15.1327C16.7389 15.2303 16.9994 15.6867 17.2643 16.1468C17.5292 16.607 17.7459 16.9983 17.7459 17.0164C17.7459 17.0676 17.1839 17.3741 16.9313 17.4607C16.5954 17.576 16.2159 17.566 15.9569 17.4352C15.363 17.1351 14.81 16.3109 14.5255 15.3017C14.3455 14.6637 14.1785 13.5194 14.1266 12.5692Z" fill="#1E0089"/>
<path d="M31.4358 12.8889C31.8407 12.7016 32.6109 12.4384 33.508 12.1809C33.8778 12.0747 34.1912 11.9989 34.2045 12.0124C34.2501 12.0585 34.1004 13.6028 33.9785 14.3439C33.7187 15.9247 33.0941 17.114 32.3031 17.5344C31.9049 17.746 31.4727 17.6926 30.8457 17.3541C30.5294 17.1834 30.5191 17.1735 30.573 17.0913C30.6341 16.9981 31.6676 15.2165 31.6978 15.1524C31.708 15.1307 31.3393 15.4895 30.8784 15.9497L30.0405 16.7865L29.9251 16.7015C29.7625 16.5816 29.466 16.1951 29.3654 15.9719C29.2442 15.7029 29.2457 15.1623 29.3685 14.8509C29.659 14.1145 30.4881 13.3276 31.4358 12.8889Z" fill="#1E0089"/>
<path d="M11.5244 14.2207C11.3514 13.9217 11.3154 13.7806 11.1208 12.6359L11.1019 12.5251L11.2893 12.5497C12.8212 12.7503 13.5626 13.152 13.5049 13.7502C13.4876 13.9296 13.2997 14.3043 13.2269 14.3044C13.2105 14.3045 13.0281 14.1878 12.8214 14.0451C12.6148 13.9024 12.4457 13.7974 12.4457 13.8116C12.4457 13.8259 12.5784 13.9935 12.7406 14.1841L13.0355 14.5307L12.9482 14.6106C12.4712 15.0479 11.9148 14.8955 11.5244 14.2207Z" fill="#1E0089"/>
<path d="M35.0441 13.6658C35.1079 13.1285 35.7141 12.7509 36.7054 12.6311C36.9482 12.6017 37.2132 12.5758 37.2943 12.5735C37.4676 12.5685 37.4684 12.5241 37.2813 13.3139C36.9664 14.6431 36.3898 15.1742 35.7405 14.733C35.6331 14.66 35.5451 14.5857 35.5451 14.5679C35.545 14.5502 35.6628 14.3852 35.8069 14.2013C35.9509 14.0174 36.0615 13.8598 36.0526 13.851C36.0438 13.8422 35.8797 13.9506 35.688 14.092C35.3558 14.3369 35.3359 14.3459 35.2652 14.2821C35.1143 14.146 35.0188 13.8796 35.0441 13.6658Z" fill="#1E0089"/>
<path d="M19.0593 16.789C19.2722 16.306 19.8252 15.1843 19.8897 15.1047C19.9343 15.0497 20.0371 15.1606 20.6473 15.9214C21.6241 17.1394 22.0699 18.0693 22.0749 18.8989C22.078 19.4212 21.9624 19.6707 21.6162 19.8886C21.4672 19.9825 20.8761 20.1992 20.8474 20.1706C20.8392 20.1625 20.7256 19.7683 20.595 19.2945C20.4643 18.8209 20.346 18.4227 20.3322 18.4098C20.3183 18.3968 20.3197 18.8103 20.3353 19.3286L20.3637 20.2709L20.0074 20.2506C19.5811 20.2264 19.3679 20.1374 19.1363 19.8869C18.8165 19.5409 18.6871 19.1294 18.6891 18.4651C18.691 17.8807 18.8044 17.3674 19.0593 16.789Z" fill="#1E0089"/>
<path d="M26.3648 18.4203C26.4937 17.5018 26.8192 16.8992 27.8798 15.6158C28.1174 15.3284 28.3274 15.0932 28.3467 15.0932C28.4005 15.0932 28.9685 16.1172 29.2234 16.6736C29.6113 17.5203 29.8108 18.243 29.8091 18.7957C29.8082 19.0819 29.719 19.4982 29.6152 19.7012C29.5331 19.8615 29.3004 20.0484 29.078 20.1324C28.93 20.1884 28.531 20.2595 28.3655 20.2595H28.2411L28.1933 19.5201C28.1437 18.7543 28.1095 18.3919 28.0888 18.4133C28.0821 18.4201 28.0125 18.7806 27.9339 19.2144C27.8553 19.6483 27.7806 20.0542 27.7677 20.1167C27.7453 20.2262 27.7381 20.2293 27.5604 20.2084C26.6874 20.1053 26.2253 19.4143 26.3648 18.4203Z" fill="#1E0089"/>
<path d="M7.94235 16.2183C7.9921 16.1681 9.98276 15.6387 10.6262 15.5045C11.0336 15.4195 12.1799 15.4546 12.5813 15.5644C12.9219 15.6575 13.2557 15.8098 13.5267 15.9957C14.1162 16.4 14.3505 17.1074 14.1531 17.886C14.1081 18.0632 14.0367 18.2863 13.9944 18.3817L13.9174 18.5551L12.7959 18.2091C11.823 17.9089 11.5831 17.8452 11.6579 17.9069C11.667 17.9144 12.0927 18.201 12.6039 18.5439C13.1151 18.8868 13.5494 19.1816 13.569 19.1988C13.6264 19.2494 13.201 19.8915 12.9203 20.1778C12.5896 20.5153 12.319 20.6539 11.9914 20.6539C11.359 20.6539 10.7247 20.3225 10.0421 19.6353C9.69212 19.2831 9.35306 18.8211 8.92051 18.1072C8.55234 17.4995 7.90722 16.2537 7.94235 16.2183Z" fill="#1E0089"/>
<path d="M36.7712 15.648C36.9343 15.625 37.1123 15.5984 37.1667 15.589C37.3281 15.561 38.1755 15.6034 38.7489 15.6681C39.6137 15.7658 40.6952 15.9164 40.7217 15.9429C40.7686 15.9897 39.9287 17.4908 39.4318 18.2482C38.4029 19.8167 37.1802 20.7682 36.1893 20.7716C35.7878 20.7731 35.3503 20.5 34.951 19.9992C34.587 19.5424 34.5715 19.6136 35.1222 19.2136C36.378 18.3015 36.7315 18.0378 36.7173 18.0237C36.7089 18.0153 36.1668 18.2221 35.5127 18.4832C34.8586 18.7444 34.3157 18.9581 34.3062 18.9581C34.2843 18.9581 34.121 18.5812 34.0756 18.4257C33.9902 18.133 33.961 17.803 34.0013 17.5855C34.1824 16.6089 35.2495 15.8625 36.7712 15.648Z" fill="#1E0089"/>
<path d="M23.3697 19.3919C23.4567 19.2292 23.7266 18.8084 23.9694 18.4567C24.2121 18.105 24.4244 17.8167 24.4411 17.8159C24.5073 17.8127 25.2068 18.9815 25.4245 19.4592C25.8148 20.3151 25.9429 21.0519 25.7906 21.5637C25.7059 21.8482 25.6212 21.9586 25.3925 22.0823C25.1891 22.1923 24.7576 22.2985 24.6624 22.2621C24.6199 22.2458 24.5806 22.0441 24.511 21.4853C24.4593 21.0701 24.405 20.7443 24.3905 20.7612C24.3759 20.7781 24.3337 21.0759 24.2967 21.4229C24.2028 22.3037 24.2121 22.2708 24.0587 22.2708C23.6682 22.2708 23.2542 22.0084 23.0877 21.6552C22.8361 21.1216 22.9552 20.1659 23.3697 19.3919Z" fill="#1E0089"/>
<path d="M15.2265 18.9724C15.2338 18.9651 15.3898 18.9436 15.5732 18.9244C16.1246 18.867 17.1131 18.8729 17.4359 18.9356C17.9945 19.044 18.3812 19.2476 18.5765 19.5359C18.7043 19.7246 18.7052 20.0593 18.5789 20.3877C18.531 20.5124 18.4875 20.6145 18.4824 20.6145C18.4773 20.6145 18.2961 20.5453 18.0798 20.4608C17.8635 20.3764 17.5886 20.2696 17.469 20.2236L17.2515 20.14L17.3537 20.2293C17.4099 20.2785 17.6458 20.4567 17.8778 20.6254C18.1098 20.7941 18.2996 20.95 18.2996 20.9719C18.2996 20.9938 18.1973 21.116 18.0722 21.2435C17.9032 21.4157 17.7991 21.4873 17.667 21.5222C17.0104 21.6957 16.2088 21.1318 15.7322 20.1609C15.5154 19.7194 15.2062 18.9926 15.2265 18.9724Z" fill="#1E0089"/>
<path d="M29.9413 19.5529C30.1332 19.2638 30.5365 19.0407 31.0101 18.9619C31.353 18.9047 31.6776 18.9151 32.1481 18.9981C32.6871 19.0932 33.2479 19.218 33.28 19.2501C33.3104 19.2803 32.824 20.079 32.5451 20.4567C31.9066 21.3216 31.1628 21.7532 30.667 21.5467C30.5338 21.4912 30.277 21.2253 30.1564 21.018L30.0878 20.9L30.6027 20.5738C30.886 20.3944 31.1259 20.2345 31.1358 20.2184C31.1458 20.2024 31.0205 20.2317 30.8576 20.2836L30.2561 20.4749C29.9179 20.5826 29.9183 20.5827 29.8452 20.3191C29.7758 20.0686 29.8169 19.7403 29.9413 19.5529Z" fill="#1E0089"/>
<path d="M38.4681 20.4643C38.6071 20.1926 38.842 20.0216 39.2037 19.9289C39.3598 19.8889 39.881 19.9425 40.1332 20.0245C40.2746 20.0704 40.4871 20.1618 40.6053 20.2276C40.9276 20.4071 42.0714 21.2354 42.0714 21.2894C42.0714 21.3305 41.2766 22.0808 40.979 22.3205C40.058 23.0625 39.1973 23.2517 38.7669 22.8067C38.6059 22.6403 38.4644 22.3065 38.4094 21.9637L38.3851 21.8121L39.0515 21.6374L39.7179 21.4628L39.3817 21.4338C39.1968 21.4179 38.8914 21.3942 38.7032 21.3811C38.3992 21.36 38.3584 21.3481 38.3392 21.2747C38.3036 21.139 38.3851 20.6265 38.4681 20.4643Z" fill="#1E0089"/>
<path d="M6.48246 21.1978C7.11132 20.7752 7.96529 20.3366 8.42059 20.2024C8.85433 20.0745 9.37743 20.0665 9.63666 20.1837C9.8601 20.2847 9.94265 20.3594 10.0388 20.5471C10.119 20.7039 10.2219 21.3462 10.1744 21.3936C10.1485 21.4195 9.22444 21.5122 8.92869 21.5186C8.69169 21.5237 8.82744 21.5682 9.47916 21.699C9.8287 21.7691 10.1258 21.8376 10.1395 21.8512C10.1821 21.8938 10.069 22.3212 9.9631 22.5175C9.65367 23.091 8.91082 23.1832 8.03466 22.757C7.70475 22.5966 7.34592 22.3091 6.71978 21.7037L6.31384 21.3111L6.48246 21.1978Z" fill="#1E0089"/>
<path d="M12.664 21.5932C13.1591 21.2728 13.6587 21.0463 14.0865 20.9482C14.2295 20.9154 14.4829 20.8981 14.7212 20.905C15.0484 20.9143 15.1571 20.9342 15.3412 21.0182C15.6377 21.1535 15.9079 21.4084 16.0478 21.6846C16.18 21.9458 16.335 22.4713 16.292 22.5126C16.2759 22.5281 15.8176 22.6591 15.2738 22.8035C14.7299 22.9479 14.268 23.0824 14.2474 23.1023C14.2245 23.1243 14.6423 23.1385 15.3108 23.1385H16.4117L16.3904 23.6216C16.3559 24.4007 16.2113 24.7139 15.7805 24.9429C14.8029 25.4624 13.3348 25.1754 11.2136 24.0501C10.8612 23.8632 10.5661 23.6893 10.5576 23.6636C10.5316 23.5844 12.3519 21.7952 12.664 21.5932Z" fill="#1E0089"/>
<path d="M32.3258 22.1104C32.5065 21.5031 32.8899 21.088 33.4044 20.9423C33.523 20.9088 33.7328 20.8961 34.0024 20.9064C34.6281 20.9302 35.1654 21.1244 35.8664 21.5803C36.1889 21.7901 38.0131 23.5829 37.9869 23.6644C37.9468 23.7894 36.1836 24.6431 35.448 24.8937C34.0358 25.3748 32.7887 25.253 32.3899 24.5951C32.2138 24.3047 32.1843 24.1817 32.1559 23.6216L32.1314 23.1385H33.2274C33.8303 23.1385 34.3144 23.1238 34.3033 23.1059C34.2922 23.0879 33.8283 22.9518 33.2726 22.8034C32.1226 22.4963 32.1952 22.5494 32.3258 22.1104Z" fill="#1E0089"/>
<path d="M17.1901 23.4969C17.578 22.8346 18.3852 22.1847 18.9737 22.0608C19.1677 22.02 19.5485 22.0643 19.7513 22.1512C19.875 22.2043 20.0337 22.3204 20.1494 22.4425C20.3767 22.6823 20.5797 23.0112 20.5298 23.0586C20.5106 23.0769 20.1656 23.3063 19.7631 23.5685C19.3607 23.8306 19.046 24.0451 19.0639 24.0453C19.0818 24.0454 19.4799 23.9293 19.9487 23.7873C20.4174 23.6453 20.8067 23.5348 20.8136 23.5417C20.8205 23.5486 20.8718 23.7111 20.9275 23.9029C21.0269 24.245 21.0543 24.5792 21.0035 24.8322C20.9653 25.0225 20.6296 25.364 20.3434 25.5035C19.8778 25.7306 19.5465 25.7915 18.7743 25.7921C18.0766 25.7926 17.465 25.7239 16.5988 25.5477C16.2845 25.4838 16.2633 25.4732 16.2734 25.3858C16.2863 25.2739 16.9487 23.9091 17.1901 23.4969Z" fill="#1E0089"/>
<path d="M27.9079 22.8423C28.148 22.4246 28.4578 22.1667 28.836 22.0692C29.0249 22.0206 29.4142 22.06 29.6635 22.153C30.1876 22.3485 30.8295 22.9186 31.1682 23.4895C31.3861 23.8567 32.0896 25.2873 32.1101 25.4048C32.122 25.4732 32.082 25.4902 31.7676 25.5503C30.8586 25.7239 30.2227 25.7953 29.5922 25.7943C28.833 25.7932 28.5039 25.7318 28.0427 25.505C27.4973 25.237 27.2766 24.8896 27.3291 24.3822C27.3507 24.1734 27.5009 23.6155 27.5493 23.564C27.5638 23.5487 27.9315 23.6438 28.3664 23.7755C29.3222 24.0649 29.3224 24.0649 29.2869 24.0263C29.2713 24.0093 28.9292 23.7803 28.5266 23.5173L27.7947 23.0391L27.9079 22.8423Z" fill="#1E0089"/>
<path d="M24.7649 23.3706C24.7223 22.9842 24.9321 22.7205 25.3773 22.6007C25.6557 22.5259 25.9304 22.5381 26.3346 22.6432C26.7652 22.7552 27.2107 22.9166 27.2275 22.9667C27.2476 23.0269 26.6208 23.8269 26.3851 24.0416C25.9843 24.4068 25.5937 24.5469 25.3272 24.4208C25.1873 24.3546 24.9441 24.0383 24.9451 23.9237C24.9453 23.8931 25.0995 23.7882 25.2876 23.6906C25.4758 23.593 25.6046 23.5084 25.5739 23.5026C25.5433 23.4967 25.3624 23.5261 25.172 23.5677C24.9816 23.6093 24.8174 23.6298 24.8071 23.6132C24.7968 23.5965 24.7778 23.4874 24.7649 23.3706Z" fill="#1E0089"/>
<path d="M21.7276 22.8997C22.0053 22.8074 22.331 22.7191 22.4514 22.7034C22.5718 22.6877 22.7148 22.6804 22.7692 22.6872C22.8236 22.694 22.9503 22.7103 23.0508 22.7235C23.2973 22.7557 23.5679 22.9326 23.657 23.1199C23.711 23.2332 23.7231 23.3263 23.7071 23.5029C23.6954 23.6313 23.6782 23.7439 23.6688 23.7533C23.6595 23.7626 23.4771 23.7344 23.2636 23.6906C23.0501 23.6468 22.8675 23.6189 22.8577 23.6286C22.848 23.6383 23.0021 23.7274 23.2002 23.8266C23.3982 23.9257 23.5603 24.021 23.5603 24.0382C23.5603 24.1048 23.328 24.4302 23.2195 24.5156C23.0741 24.63 22.7939 24.6154 22.5103 24.4785C22.1891 24.3234 21.6718 23.7699 21.2895 23.172L21.2226 23.0674L21.7276 22.8997Z" fill="#1E0089"/>
<path d="M8.03241 24.9025C8.42288 24.5136 8.91291 24.2237 9.27629 24.1666C9.75438 24.0916 10.043 24.2679 10.3122 24.7996C10.3761 24.9259 10.4285 25.0435 10.4285 25.061C10.4285 25.0784 10.1615 25.2249 9.83515 25.3864C9.50883 25.5479 9.24184 25.691 9.24184 25.7043C9.24184 25.7177 9.51326 25.6784 9.84503 25.617C10.5572 25.4853 10.5704 25.4846 10.6051 25.5737C10.6634 25.7236 10.6759 26.1757 10.6266 26.3514C10.4447 26.9989 9.42786 27.3285 8.45077 27.0566C8.22982 26.9951 7.02632 26.5515 6.89659 26.4837C6.83283 26.4504 6.84849 26.4141 7.05195 26.1236C7.36209 25.6806 7.80529 25.1287 8.03241 24.9025Z" fill="#1E0089"/>
<path d="M38.0605 24.8327C38.1753 24.5779 38.3786 24.361 38.6109 24.2454C38.8195 24.1417 39.1591 24.1407 39.4519 24.2429C39.7459 24.3455 40.1617 24.63 40.4037 24.8939C40.6329 25.144 41.4506 26.3559 41.4306 26.4158C41.413 26.4684 40.5939 26.828 40.0711 27.0126C39.5526 27.1958 39.1928 27.2559 38.7616 27.2314C38.3155 27.206 37.9676 27.0431 37.8347 26.7974C37.7512 26.6431 37.7202 26.3157 37.7593 26.004C37.7811 25.831 37.8055 25.6829 37.8136 25.6748C37.8216 25.6668 38.1179 25.6879 38.472 25.7216C38.8261 25.7554 39.1229 25.776 39.1315 25.7673C39.1402 25.7587 38.8752 25.6364 38.5426 25.4956C37.8567 25.2052 37.8791 25.2359 38.0605 24.8327Z" fill="#1E0089"/>
<path d="M23.3662 26.8306C23.5122 26.1104 23.8256 25.2685 24.1777 24.6507L24.3316 24.3807L24.3556 26.3329C24.3812 28.4148 24.4285 29.0378 24.6073 29.6505C24.7767 30.2308 24.906 30.2237 25.617 29.5946C25.8019 29.431 25.9578 29.3018 25.9635 29.3074C25.9691 29.3131 25.7855 29.7388 25.5555 30.2535C25.2028 31.0425 25.1416 31.2088 25.1647 31.3146C25.2639 31.7693 25.5522 32.5252 25.9118 33.2739C26.3711 34.23 26.5278 34.6058 26.5568 34.8213C26.5957 35.1104 26.3616 34.9685 25.8051 34.3656C23.6511 32.0322 22.8274 29.4874 23.3662 26.8306Z" fill="#1E0089"/>
<path d="M10.2507 27.5886C10.8471 26.6811 11.7616 25.954 12.5734 25.7419C13.2828 25.5566 13.9186 25.7299 14.3658 26.2305C14.5605 26.4485 14.9277 27.0263 14.8933 27.0606C14.885 27.0689 14.4777 27.3225 13.9882 27.6241C12.8072 28.3519 12.7523 28.387 12.7688 28.4035C12.7766 28.4113 13.3132 28.2664 13.9612 28.0817C14.6093 27.8969 15.1623 27.7545 15.1901 27.7652C15.2179 27.7758 15.2919 27.9681 15.3545 28.1925C15.4458 28.5196 15.4687 28.6827 15.4699 29.0146C15.4714 29.3906 15.4613 29.4496 15.3603 29.6546C14.9381 30.5119 13.4056 30.9452 11.5578 30.7297C10.6424 30.6229 8.95235 30.3121 8.87051 30.2355C8.82447 30.1924 9.91908 28.0933 10.2507 27.5886Z" fill="#1E0089"/>
<path d="M33.8126 26.6595C34.177 26.1165 34.4432 25.8881 34.8919 25.7334C35.1349 25.6496 35.6418 25.6418 35.9271 25.7176C36.4116 25.8462 36.8816 26.134 37.3759 26.6049C38.01 27.209 38.3472 27.7666 39.0999 29.4557C39.3192 29.9477 39.5035 30.3723 39.5094 30.3993C39.5223 30.458 39.2312 30.5131 38.1753 30.6516C36.4247 30.8812 35.3189 30.8453 34.3584 30.5274C33.8405 30.356 33.3856 30.0473 33.1574 29.7123C32.867 29.286 32.8839 28.6934 33.2116 27.8202L33.2949 27.5982L34.4991 28.0075C35.1613 28.2326 35.7023 28.4049 35.7012 28.3904C35.7 28.3758 35.4654 28.2042 35.1797 28.009C34.3711 27.4564 33.7093 26.9968 33.6695 26.9603C33.6481 26.9407 33.7071 26.8168 33.8126 26.6595Z" fill="#1E0089"/>
<path d="M20.2158 26.5082C20.3089 26.1832 20.4471 25.9868 20.6458 25.8968C20.762 25.8443 20.9026 25.8217 21.1178 25.8211L21.4244 25.8202V25.9613C21.4244 26.0389 21.405 26.3138 21.3814 26.5722C21.3577 26.8305 21.3457 27.0637 21.3545 27.0902C21.3634 27.1168 21.4648 26.8612 21.5798 26.5221L21.789 25.9056L21.9384 25.9582C22.296 26.084 22.4376 26.2037 22.5681 26.4907C22.7558 26.9034 22.6077 27.5524 22.1839 28.1747C22.0557 28.3629 21.4706 28.942 20.9056 29.4399L20.8034 29.53L20.6194 29.0526C20.3194 28.2741 20.195 27.7662 20.1701 27.2181C20.153 26.8401 20.1623 26.6945 20.2158 26.5082Z" fill="#1E0089"/>
<path d="M26.9761 25.8913L27.058 25.8583C27.103 25.8401 27.2565 25.8241 27.3991 25.8227C28.032 25.8166 28.4073 26.2512 28.4548 27.0453C28.4809 27.4815 28.4011 27.8767 28.1726 28.4428C27.9966 28.879 27.7255 29.489 27.6934 29.5209C27.6218 29.5924 26.2713 28.3006 26.0307 27.9304C25.7427 27.4876 25.6081 27.0172 25.6721 26.6772C25.7057 26.4985 25.9201 26.2816 26.2031 26.1401C26.6085 25.9374 26.5568 25.902 26.8444 26.5784C26.9847 26.9086 27.1042 27.1526 27.1098 27.1206C27.1153 27.0886 27.0875 26.799 27.048 26.4769L26.9761 25.8913Z" fill="#1E0089"/>
<path d="M30.0366 27.4318C30.0584 27.41 30.2255 27.3404 30.4078 27.2772C31.3404 26.9535 32.0886 27.3126 32.5899 28.3245C32.9404 29.0321 33.0658 29.7581 33.0087 30.7499C32.9767 31.3064 32.8277 32.8095 32.7947 32.9098C32.7743 32.9717 31.3846 32.2858 30.7676 31.9092C29.3573 31.0485 28.6094 30.2057 28.4614 29.3104C28.4194 29.0566 28.4229 29.0153 28.5049 28.7977C28.5789 28.6015 28.6602 28.4955 28.9816 28.1766C29.1948 27.9651 29.3965 27.7921 29.4299 27.7921C29.4633 27.7921 29.7955 28.1839 30.168 28.6627C30.5406 29.1415 30.8522 29.5264 30.8606 29.5181C30.8689 29.5097 30.678 29.0458 30.4363 28.4872C30.142 27.8069 30.01 27.4584 30.0366 27.4318Z" fill="#1E0089"/>
<path d="M15.7047 29.4537C15.8899 28.2473 16.4422 27.4794 17.2386 27.3212C17.465 27.2762 17.6992 27.3062 18.0757 27.4283C18.6032 27.5993 18.598 27.5057 18.1413 28.5977C17.9243 29.1167 17.7519 29.5465 17.7583 29.5528C17.7647 29.5592 18.0595 29.2011 18.4135 28.7571C18.7675 28.3131 19.0675 27.9498 19.0801 27.9498C19.1311 27.9498 19.5295 28.2813 19.7206 28.4828C19.9691 28.7449 20.1182 29.0483 20.1187 29.2934C20.1197 29.7513 19.8415 30.2795 19.3317 30.7878C18.9261 31.1922 18.4006 31.5499 17.6242 31.9499C17.037 32.2525 16.0446 32.695 16.0164 32.6669C15.9927 32.6432 15.8242 31.6271 15.7534 31.0807C15.6469 30.2592 15.6362 29.9008 15.7047 29.4537Z" fill="#1E0089"/>
<path d="M22.0702 30.5724C22.1342 30.0812 22.2995 29.109 22.3605 28.8649C22.373 28.8151 22.3901 28.7813 22.3987 28.7899C22.4073 28.7984 22.4674 29.1675 22.5324 29.61C22.8097 31.4998 23.1599 33.2355 23.443 34.1226C23.7158 34.9776 23.9587 35.3339 25.7957 37.5726C26.3213 38.213 26.8785 39.0248 27.1386 39.5288C27.6168 40.4552 27.721 41.0568 27.5737 42.0391C27.4924 42.5813 27.1207 44.6838 27.103 44.7014C27.0953 44.7091 27.0766 44.5857 27.0615 44.4271C26.9823 43.599 26.6381 42.5479 26.1061 41.5097C25.8639 41.037 25.2844 40.1424 24.781 39.464C23.4571 37.6798 23.0717 37.1089 22.6918 36.3697C22.3704 35.7444 22.239 35.2773 22.0699 34.1584C21.9672 33.4788 21.9673 31.3614 22.0702 30.5724Z" fill="#1E0089"/>
<path d="M23.0671 31.4203C23.0042 31.0293 22.9877 30.624 23.0329 30.579C23.1119 30.5003 23.1772 30.6051 23.3594 31.1029C23.5178 31.5356 23.9558 32.3684 24.3379 32.9636C24.7546 33.6126 25.2283 34.2584 26.0714 35.327C26.8806 36.3528 27.2081 36.8267 27.4371 37.303C27.7979 38.0535 27.6409 38.3102 27.0188 37.9869C26.6898 37.8159 26.3156 37.5132 25.9092 37.0893C24.5002 35.62 23.3853 33.396 23.0671 31.4203Z" fill="#1E0089"/>
<path d="M19.1032 32.6223C18.9932 32.0032 19.1064 31.5088 19.4031 31.3122C19.5118 31.2401 19.5926 31.2231 19.826 31.2231C19.9846 31.2231 20.1221 31.2365 20.1314 31.2527C20.1408 31.269 20.125 31.4947 20.0963 31.7544C20.0677 32.0141 20.0498 32.232 20.0566 32.2388C20.0634 32.2456 20.147 32.0464 20.2423 31.7963C20.4336 31.2947 20.4458 31.2847 20.709 31.4186C20.8841 31.5076 21.0573 31.698 21.0933 31.8406C21.1069 31.8949 21.1095 32.0593 21.099 32.2058C21.0624 32.7152 20.7255 33.167 19.9233 33.7822C19.5581 34.0622 19.5488 34.0667 19.5134 33.977C19.355 33.5755 19.1556 32.9171 19.1032 32.6223Z" fill="#1E0089"/>
<path d="M37.3253 31.5132C37.3251 31.4883 37.3879 31.4129 37.4648 31.3456C37.8279 31.0276 38.349 31.3284 38.7171 32.0683C38.8087 32.2526 38.8751 32.4118 38.8647 32.4222C38.8248 32.462 38.3207 32.524 38.0369 32.5241C37.3773 32.5242 37.0588 32.2929 37.1671 31.8921C37.2167 31.7082 37.2155 31.7084 37.6117 31.8315C37.715 31.8636 37.7996 31.8837 37.7996 31.8763C37.7996 31.8689 37.6929 31.7943 37.5626 31.7106C37.4323 31.6269 37.3255 31.538 37.3253 31.5132Z" fill="#1E0089"/>
<path d="M10.1042 31.5391C10.1846 31.4729 10.3217 31.3837 10.4087 31.3407C10.586 31.2532 10.8128 31.2406 10.9046 31.3131C10.9705 31.3652 11.1404 31.5956 11.1404 31.6329C11.1404 31.6455 11.0318 31.7105 10.8991 31.7773C10.7664 31.8441 10.6658 31.9067 10.6756 31.9165C10.6854 31.9263 10.8104 31.9099 10.9533 31.88C11.2067 31.827 11.2137 31.8277 11.2356 31.9089C11.3889 32.4784 10.7418 32.7436 9.8747 32.4666C9.68979 32.4075 9.52409 32.3456 9.50649 32.3291C9.46472 32.2899 9.91528 31.6943 10.1042 31.5391Z" fill="#1E0089"/>
<path d="M28.351 31.6752C28.3297 31.5042 28.321 31.3503 28.3316 31.3332C28.3422 31.316 28.4506 31.302 28.5725 31.302C28.8769 31.302 29.0953 31.4313 29.22 31.6853C29.3499 31.9498 29.3521 32.5518 29.2244 32.8992C29.0831 33.2837 28.8054 33.9049 28.7747 33.9049C28.7591 33.9049 28.5167 33.6786 28.236 33.4021C27.8057 32.978 27.7031 32.8529 27.581 32.6034C27.3093 32.0486 27.3479 31.7544 27.7202 31.5416C27.8361 31.4753 27.9604 31.4209 27.9966 31.4207C28.0429 31.4204 28.1068 31.5332 28.2141 31.8045C28.3846 32.2357 28.417 32.2051 28.351 31.6752Z" fill="#1E0089"/>
<path d="M11.567 33.183C11.7031 32.5428 11.996 32.0473 12.3378 31.8793C12.5667 31.7667 12.8597 31.8014 13.2925 31.9922L13.5102 32.0883L13.3377 32.474C13.2428 32.6862 13.1093 32.9831 13.0409 33.1338C12.8838 33.4801 12.9356 33.4383 13.4649 32.7916C13.6739 32.5363 13.861 32.3274 13.8807 32.3274C13.9004 32.3274 14.0269 32.4383 14.1618 32.5739C14.4336 32.847 14.5025 33.0064 14.5025 33.3619C14.5025 33.9283 13.8603 34.643 13.039 34.9905C12.8976 35.0503 12.506 35.192 12.1688 35.3054L11.5557 35.5115L11.525 35.4082C11.508 35.3514 11.492 34.9145 11.4895 34.4373C11.4856 33.6973 11.497 33.5128 11.567 33.183Z" fill="#1E0089"/>
<path d="M34.8153 32.2452C34.8303 32.221 34.9517 32.1498 35.085 32.0869C35.3802 31.9476 35.7471 31.9312 35.9999 32.046C36.3815 32.2191 36.7467 32.7619 36.8921 33.3724C36.9652 33.6795 36.9728 33.8159 36.9617 34.6164C36.9548 35.1108 36.936 35.5284 36.92 35.5444C36.8765 35.5876 35.6978 35.1906 35.2822 34.9928C34.3584 34.553 33.8293 33.9987 33.8291 33.4706C33.829 33.2417 33.9842 32.953 34.245 32.6969L34.4406 32.5049L34.9236 33.0083C35.1892 33.2852 35.4203 33.5115 35.437 33.5111C35.4538 33.5108 35.4132 33.4174 35.3469 33.3035C35.0242 32.7497 34.7907 32.2849 34.8153 32.2452Z" fill="#1E0089"/>
<path d="M16.305 36.4347C15.8024 35.1534 15.9127 34.084 16.5715 33.8514C16.6627 33.8191 16.8841 33.7914 17.0636 33.7897L17.3899 33.7866L17.3911 34.5063C17.3918 34.9153 17.4066 35.2005 17.4255 35.1669C17.4437 35.1343 17.5352 34.8186 17.6288 34.4652L17.7989 33.8227L17.9207 33.8477C18.1029 33.885 18.4648 34.0555 18.5703 34.1537C18.9864 34.541 19.0006 35.2736 18.6071 36.0528C18.4072 36.4487 18.2702 36.6192 17.6303 37.2693C17.0636 37.845 17.0123 37.8873 16.961 37.8214C16.8758 37.7119 16.4671 36.848 16.305 36.4347Z" fill="#1E0089"/>
<path d="M31.0834 34.4481C31.0325 34.0165 31.0231 33.8226 31.0527 33.8104C31.0761 33.8007 31.2376 33.7918 31.4117 33.7906C31.6397 33.7889 31.7734 33.8088 31.8903 33.8617C32.201 34.0024 32.4424 34.3305 32.5374 34.7413C32.59 34.9684 32.5888 35.6491 32.5353 35.9373C32.476 36.257 31.8216 37.8892 31.7534 37.8874C31.6975 37.8859 30.7413 36.9794 30.4652 36.6661C29.6096 35.6955 29.3736 34.7383 29.8803 34.2947C30.042 34.1532 30.505 33.9295 30.5783 33.9575C30.6044 33.9675 30.7403 34.2642 30.8803 34.6168C31.045 35.0316 31.1387 35.2245 31.1457 35.1631C31.1518 35.111 31.1237 34.7892 31.0834 34.4481Z" fill="#1E0089"/>
<path d="M14.0242 36.557C13.7914 35.8617 13.8263 35.3515 14.1154 35.2263C14.2612 35.1631 14.3229 35.157 14.4556 35.1924C14.5427 35.2157 14.5461 35.2297 14.5251 35.4778L14.503 35.7387L14.5992 35.5415C14.6521 35.4331 14.6965 35.321 14.6978 35.2924C14.7008 35.2285 14.8353 35.2616 14.9771 35.361C15.214 35.5271 15.2159 35.8697 14.9819 36.2375C14.8781 36.4007 14.2662 36.9416 14.1854 36.9416C14.1676 36.9416 14.0951 36.7685 14.0242 36.557Z" fill="#1E0089"/>
<path d="M33.9918 35.5279C33.9582 35.3232 33.9608 35.2712 34.0063 35.2426C34.088 35.1909 34.2242 35.1988 34.3811 35.2641C34.4855 35.3077 34.5404 35.3682 34.6028 35.5089C34.75 35.8407 34.6943 36.2757 34.4179 36.9509C34.3936 37.0103 34.3602 36.996 34.1665 36.8441C33.4698 36.2976 33.1887 35.778 33.4434 35.5077C33.5293 35.4165 33.7562 35.295 33.7768 35.3292C33.7818 35.3375 33.8355 35.4485 33.8961 35.5758C33.9566 35.7031 34.0122 35.8007 34.0195 35.7927C34.0269 35.7847 34.0144 35.6655 33.9918 35.5279Z" fill="#1E0089"/>
<path d="M21.9561 37.2829C22.0294 36.9975 22.1118 36.7152 22.1391 36.6555C22.1664 36.5957 22.1931 36.5514 22.1985 36.5569C22.2038 36.5624 22.3455 36.771 22.5133 37.0204C22.847 37.5165 24.5432 40.0071 25.1424 40.8807C26.0282 42.1722 26.5044 43.3759 26.6616 44.7206L26.6835 44.9079H25.3439H24.0043L23.9762 44.721C23.8856 44.1187 23.3081 42.8416 22.6411 41.7687C22.4375 41.4412 22.2118 41.0242 22.1395 40.842C21.6989 39.7307 21.6368 38.5249 21.9561 37.2829Z" fill="#1E0089"/>
<path d="M21.706 42.8034L22.0263 41.9008C22.0476 41.8411 22.0774 41.7924 22.0925 41.7924C22.1628 41.7924 22.7547 42.6706 22.962 43.0824C23.1658 43.4875 23.3236 43.9163 23.445 44.3952C23.5083 44.6447 23.5601 44.8621 23.5601 44.8783C23.5602 44.8946 23.0797 44.9079 22.4923 44.9079H21.4244V44.2527V43.5975L21.706 42.8034Z" fill="#1E0089"/>
<path d="M27.5965 43.8691C27.6198 43.7789 27.7206 43.4345 27.8203 43.1037C27.92 42.7729 28.0133 42.5022 28.0275 42.5022C28.0417 42.5022 28.2136 43.0391 28.4095 43.6952L28.7656 44.8882L28.0954 44.899C27.7268 44.905 27.4196 44.9042 27.4126 44.8973C27.3972 44.8819 27.5377 44.0962 27.5965 43.8691Z" fill="#1E0089"/>
</svg>
